<svg width="88" height="88" viewBox="0 0 88 88" fill="none" xmlns="http://www.w3.org/2000/svg">
<g filter="url(#filter0_d_2819_362)">
<path opacity="0.3" d="M84 40C84 62.0914 66.0914 80 44 80C21.9086 80 4 62.0914 4 40C4 17.9086 21.9086 0 44 0C66.0914 0 84 17.9086 84 40ZM14.9071 40C14.9071 56.0675 27.9325 69.0929 44 69.0929C60.0675 69.0929 73.0929 56.0675 73.0929 40C73.0929 23.9325 60.0675 10.9071 44 10.9071C27.9325 10.9071 14.9071 23.9325 14.9071 40Z" fill="#2F2E30"/>
<circle cx="44" cy="40" r="29" fill="black"/>
<path d="M32.0991 50.5992L32.0988 50.5991C31.2261 49.9483 30.4255 48.9206 29.8427 47.759C29.2599 46.5973 28.9166 45.3451 28.9166 44.2666V31.8666C28.9166 29.5074 30.6715 26.9618 32.8911 26.1351L32.8921 26.1348L41.2083 23.0183C41.2084 23.0182 41.2085 23.0182 41.2086 23.0182C41.9621 22.7366 42.9615 22.5874 43.9833 22.5874C45.0051 22.5874 46.0045 22.7366 46.758 23.0182C46.7581 23.0182 46.7582 23.0182 46.7582 23.0183L55.0745 26.1348L55.0755 26.1351C57.2951 26.9618 59.05 29.5074 59.05 31.8666V44.2499C59.05 45.3371 58.7066 46.5892 58.124 47.7483C57.5415 48.9073 56.741 49.9313 55.8678 50.5824L55.8675 50.5826L48.7009 55.9326L48.7008 55.9325L48.6946 55.9373C47.4119 56.9264 45.724 57.4332 44 57.4332C42.2773 57.4332 40.5851 56.927 39.2648 55.9486C39.2647 55.9484 39.2645 55.9483 39.2644 55.9482L32.0991 50.5992ZM41.7418 24.4315L41.7412 24.4317L33.4245 27.5484L33.4238 27.5486C32.5962 27.8602 31.855 28.5225 31.3241 29.2906C30.793 30.059 30.4333 30.9898 30.4333 31.8832V44.2666C30.4333 45.161 30.7439 46.1892 31.2009 47.101C31.6578 48.0126 32.2932 48.8722 33.0008 49.4005L33.0009 49.4006L40.1672 54.7503C41.2292 55.5445 42.6282 55.9249 44.002 55.9249C45.376 55.9249 46.7782 55.5445 47.8477 54.7516L47.8491 54.7506L55.0157 49.4006L55.0166 49.3999C55.7314 48.8638 56.3668 48.005 56.8222 47.0943C57.2775 46.1837 57.5833 45.16 57.5833 44.2666V31.8666C57.5833 30.9804 57.2229 30.0538 56.6925 29.2864C56.162 28.5189 55.4223 27.854 54.5976 27.5338L54.5976 27.5338L54.5921 27.5317L46.2754 24.415L46.2755 24.4149L46.2664 24.4117C45.6282 24.1865 44.8001 24.0831 44.0007 24.0853C43.202 24.0875 42.3751 24.1951 41.7418 24.4315Z" fill="#FAFAFA" stroke="#FAFAFA"/>
<path d="M41.4131 41.0536L41.7667 41.4071L42.1202 41.0536L48.4036 34.7703C48.6916 34.4822 49.1751 34.4822 49.4631 34.7703C49.7512 35.0583 49.7512 35.5417 49.4631 35.8298L42.2965 42.9965C42.1452 43.1478 41.9579 43.2167 41.7667 43.2167C41.5755 43.2167 41.3882 43.1478 41.2369 42.9965L38.5536 40.3131C38.2655 40.0251 38.2655 39.5417 38.5536 39.2536C38.8416 38.9655 39.3251 38.9655 39.6131 39.2536L41.4131 41.0536Z" fill="#FAFAFA" stroke="#FAFAFA"/>
</g>
<defs>
<filter id="filter0_d_2819_362" x="0" y="0" width="88" height="88" filterUnits="userSpaceOnUse" color-interpolation-filters="sRGB">
<feFlood flood-opacity="0" result="BackgroundImageFix"/>
<feColorMatrix in="SourceAlpha" type="matrix" values="0 0 0 0 0 0 0 0 0 0 0 0 0 0 0 0 0 0 127 0" result="hardAlpha"/>
<feOffset dy="4"/>
<feGaussianBlur stdDeviation="2"/>
<feComposite in2="hardAlpha" operator="out"/>
<feColorMatrix type="matrix" values="0 0 0 0 0 0 0 0 0 0 0 0 0 0 0 0 0 0 0.25 0"/>
<feBlend mode="normal" in2="BackgroundImageFix" result="effect1_dropShadow_2819_362"/>
<feBlend mode="normal" in="SourceGraphic" in2="effect1_dropShadow_2819_362" result="shape"/>
</filter>
</defs>
</svg>
